<svg viewBox="0 0 375 667" fill="none" xmlns="http://www.w3.org/2000/svg">
<g clip-path="url(#clip0_70_1062)">
<rect width="375" height="667" fill="#F5E0D5"/>
<g filter="url(#filter0_f_70_1062)">
<path fill-rule="evenodd" clip-rule="evenodd" d="M291.005 297.042C352.168 310.599 324.579 363.513 359.638 393.381C375.637 407.011 413.966 406.842 434.007 418.871C464.732 437.313 502.252 455.814 504.629 480.405C507.374 508.804 495.521 545.364 447.446 557.889C397.826 570.817 345.897 539.488 291.005 536.06C246.207 533.263 200.119 549.959 159.192 539.889C115.38 529.108 70.1941 507.321 70.0004 481.678C69.8018 455.381 140.996 445.288 158.292 420.647C174.241 397.923 140.007 370.779 162.626 349.712C190.083 324.14 239.849 285.702 291.005 297.042Z" fill="#B9C655"/>
<path fill-rule="evenodd" clip-rule="evenodd" d="M90.9102 -93.8625C138.922 -96.5799 165.29 -58.347 203.107 -39.6006C236.524 -23.0352 288.718 -15.7921 300.267 9.91883C311.95 35.9305 260.801 58.0314 259.088 85.0338C257.046 117.248 317.36 150.695 289.619 177.839C263.354 203.541 197.212 195.027 148.625 193.125C110.898 191.647 82.297 171.446 44.8407 168.255C-3.14418 164.167 -63.4873 193.868 -97.3577 172.166C-130.342 151.031 -88.9158 115.064 -84.082 85.6481C-80.5747 64.3049 -85.98 42.79 -72.842 22.9784C-59.4034 2.71358 -32.0883 -11.1109 -8.98372 -27.5965C23.676 -50.9 41.6355 -91.0736 90.9102 -93.8625Z" fill="#C1D04B"/>
<path fill-rule="evenodd" clip-rule="evenodd" d="M68.2598 267.007C89.9322 270.042 109.765 255.024 131.675 257.552C155.26 260.274 174.842 269.851 187.064 280.717C199.9 292.128 201.064 305.715 200.73 318.944C200.355 333.777 205.276 351.357 185.015 361.77C164.657 372.233 130.903 369.188 102.327 369.516C79.9599 369.773 59.9521 363.985 37.6022 363.461C5.29481 362.703 -44.9619 381.35 -57.3496 365.771C-72.1387 347.172 2.68698 334.258 -1.53271 314.244C-5.50941 295.382 -71.7605 293.321 -76.59 274.514C-80.7415 258.346 -52.7262 237.705 -21.6013 236.092C14.8458 234.203 32.8859 262.055 68.2598 267.007Z" fill="#A3C3EB"/>
<path fill-rule="evenodd" clip-rule="evenodd" d="M256.103 -52.9434C283.595 -50.6407 296.862 -37.7266 322.97 -33.5848C359.024 -27.8654 416.947 -38.3823 434.745 -24.6042C452.13 -11.1455 394.602 0.712559 386.373 15.4983C379.135 28.503 408.474 43.3617 390.653 54.6195C373.045 65.7428 332.397 65.1901 301.146 69.337C268.623 73.6528 230.932 87.7213 203.643 79.4352C171.939 69.8086 211.731 44.3369 182.801 33.4028C148.116 20.2936 66.4 37.4072 46.535 20.0562C29.5519 5.22251 102.576 -2.45417 126.676 -15.619C144.332 -25.2638 144.181 -39.5372 168.427 -46.5293C193.021 -53.6217 226.423 -55.4294 256.103 -52.9434Z" fill="#F39186"/>
<path fill-rule="evenodd" clip-rule="evenodd" d="M288.701 568.676C314.081 563.94 331.066 585.39 354.448 592.524C378.128 599.748 420.355 596.652 427.076 610.894C434.704 627.057 392.858 638.181 383.497 654.076C377.83 663.698 388.247 674.003 384.109 683.85C378.967 696.087 373.086 708.86 356.732 717.767C338.629 727.625 314.205 737.508 288.701 735.808C262.883 734.087 252.823 715.756 229.713 709.301C204.913 702.374 169.797 708.105 150.493 697.206C131.279 686.358 124.568 668.562 131.898 654.076C139.131 639.782 165.447 630.986 188.189 622.71C204.901 616.628 230.525 620.664 244.81 612.985C267.167 600.966 258.895 574.239 288.701 568.676Z" fill="#5F95E8"/>
<path fill-rule="evenodd" clip-rule="evenodd" d="M59.326 581.003C93.6479 580.695 102.636 602.529 131.891 609.877C159.955 616.926 202.715 612.126 224.07 622.381C245.239 632.547 241.619 647.977 238.946 661.286C236.406 673.934 227.265 686.365 209.151 696.668C191.906 706.475 166.509 713.244 139.309 717.951C114.08 722.318 85.3008 726.16 59.326 722.598C34.236 719.158 31.3249 701.497 5.28395 699.573C-43.1623 695.993 -96.2929 718.401 -138.427 707.986C-171.721 699.756 -166.745 675.57 -149.6 661.286C-132.063 646.676 -80.8486 646.014 -51.0768 635.214C-33.0832 628.687 -26.8159 618.722 -11.4229 611.163C10.7563 600.273 24.6814 581.314 59.326 581.003Z" fill="#F5E0D5"/>
<path fill-rule="evenodd" clip-rule="evenodd" d="M337.615 165.598C370.178 170.793 385.818 190.022 410.036 202.84C428.115 212.409 445.844 221.236 462.328 231.607C482.313 244.179 523.537 254.16 517.379 270.371C510.637 288.124 461.693 289.252 435.99 300.949C420.434 308.028 412.373 318.429 396.573 325.349C378.576 333.232 360.398 341.676 337.615 344.039C312.881 346.603 287.588 343.723 263.905 339.105C237.088 333.877 208.25 328.25 191.973 315.641C175.378 302.786 174.429 286.021 175.176 270.371C175.91 254.986 187.046 240.999 196.23 226.425C207.48 208.571 207.942 186.732 235.299 174.962C262.793 163.134 303.871 160.214 337.615 165.598Z" fill="#F5D6CA"/>
<path fill-rule="evenodd" clip-rule="evenodd" d="M79.5853 438.681C108.136 438.297 130.011 418.7 155.627 423.867C180.35 428.855 157.626 446.348 168.722 456.664C178.034 465.322 209.912 468.357 213.528 477.698C217.099 486.925 199.667 495.284 186.64 502.96C174.364 510.194 157.261 515.278 140.429 520.77C120.852 527.158 104.522 536.916 79.5853 537.893C54.566 538.874 29.6941 532.954 11.6084 525.82C-5.07893 519.238 -8.75712 509.248 -15.9009 500.23C-21.7655 492.827 -28.944 485.416 -26.5143 477.698C-24.2145 470.393 -7.22023 465.412 -2.69502 458.282C4.10105 447.575 -17.0032 431.445 6.3793 425.874C29.7092 420.317 52.5964 439.044 79.5853 438.681Z" fill="#F49F96"/>
</g>
<rect width="375" height="667" fill="url(#paint0_radial_70_1062)"/>
<path opacity="0.05" d="M324.694 299.672C330.646 279.296 330.663 258.213 329.184 237.216C327.773 217.013 323.885 196.551 313.804 178.765C304.549 162.413 290.46 149.1 274.392 139.447C239.694 118.588 197.598 113.115 158.41 122.284C138.489 126.946 119.394 135.286 102.208 146.354C84.2998 157.889 68.6451 173.516 59.2695 192.683C42.0838 227.805 42.7547 272.441 54.6247 309.117C60.2157 326.367 68.9548 342.685 81.3925 355.947C95.1033 370.572 112.083 379.603 130.782 386.285C146.936 392.053 163.881 395.696 181.015 396.698C217.279 398.856 254.575 389.549 282.736 365.772C302.106 349.437 317.228 325.228 324.694 299.672Z" fill="white"/>
<path opacity="0.05" d="M305.441 293.626C310.555 276.171 310.57 258.111 309.299 240.124C308.087 222.817 304.746 205.289 296.085 190.053C288.134 176.046 276.029 164.641 262.224 156.373C232.413 138.504 196.247 133.815 162.578 141.669C145.462 145.663 129.057 152.808 114.291 162.289C98.9055 172.17 85.4557 185.557 77.4006 201.976C62.6354 232.062 63.2118 270.299 73.41 301.717C78.2135 316.494 85.7217 330.472 96.4077 341.832C108.187 354.361 122.775 362.097 138.841 367.822C152.719 372.762 167.278 375.883 181.999 376.741C213.155 378.59 245.198 370.617 269.393 350.249C286.035 336.256 299.027 315.518 305.441 293.626Z" fill="white"/>
<path d="M281.114 291.184C285.473 276.359 285.486 261.019 284.402 245.741C283.369 231.042 280.522 216.153 273.138 203.213C266.36 191.315 256.041 181.628 244.273 174.605C218.86 159.428 188.03 155.445 159.329 162.117C144.739 165.509 130.753 171.577 118.166 179.631C105.051 188.023 93.5852 199.393 86.7185 213.339C74.1318 238.894 74.6232 271.371 83.3167 298.057C87.4115 310.608 93.812 322.481 102.921 332.13C112.963 342.771 125.399 349.342 139.094 354.204C150.925 358.4 163.335 361.051 175.884 361.78C202.443 363.351 229.759 356.579 250.384 339.278C264.571 327.393 275.646 309.779 281.114 291.184Z" fill="white"/>
<path d="M294.114 286.184C298.473 271.359 298.486 256.019 297.402 240.741C296.369 226.042 293.522 211.153 286.138 198.213C279.36 186.315 269.041 176.628 257.273 169.605C231.86 154.428 201.03 150.445 172.329 157.117C157.739 160.509 143.753 166.577 131.166 174.631C118.051 183.023 106.585 194.393 99.7185 208.339C87.1318 233.894 87.6232 266.371 96.3167 293.057C100.411 305.608 106.812 317.481 115.921 327.13C125.963 337.771 138.399 344.342 152.094 349.204C163.925 353.4 176.335 356.051 188.884 356.78C215.443 358.351 242.759 351.579 263.384 334.278C277.571 322.393 288.646 304.779 294.114 286.184Z" fill="url(#paint1_linear_70_1062)"/>
<path opacity="0.2" d="M296.846 273.752C277.332 287.003 253.239 292.168 229.737 290.782C217.206 290.039 204.813 287.393 192.999 283.174C179.323 278.299 166.905 271.711 156.878 261.042C147.782 251.368 141.39 239.464 137.301 226.88C132.03 210.618 129.778 192.214 131.652 174.542C144.171 166.543 158.048 160.509 172.504 157.133C201.164 150.432 231.951 154.425 257.328 169.642C269.079 176.696 279.383 186.408 286.151 198.324C293.524 211.311 296.368 226.225 297.399 240.963C298.179 251.934 298.393 262.931 296.846 273.752Z" fill="#FBFCFE"/>
<path d="M296.046 286.708C299.426 275.075 300.271 262.914 299.93 250.854C299.602 239.296 298.594 227.6 295.605 216.395C292.768 205.78 288.001 195.87 281.066 187.306C274.42 179.106 266.047 172.328 256.905 167.058C238.003 156.155 215.936 151.149 194.158 152.118C171.523 153.136 149.469 160.632 130.415 172.768C121.702 178.314 113.694 185.093 107.2 193.141C100.643 201.253 95.9143 210.497 92.8123 220.444C86.4569 240.818 86.7343 263.141 91.6648 283.778C96.6078 304.479 106.898 324.148 124.211 337.114C132.697 343.465 142.432 347.942 152.407 351.413C163.693 355.349 175.496 357.839 187.425 358.682C208.37 360.166 229.958 356.506 248.595 346.634C267.308 336.724 281.696 320.45 290.523 301.347C292.705 296.606 294.558 291.714 296.046 286.708C296.74 284.382 293.096 283.376 292.402 285.702C286.639 305.082 275.127 323.381 258.847 335.655C242.681 347.829 222.682 354.054 202.569 355.073C180.93 356.167 158.573 351.551 139.192 341.855C130.049 337.277 121.802 331.253 115.094 323.519C108.322 315.709 103.178 306.503 99.5838 296.845C92.4844 277.804 90.0129 256.5 93.0645 236.391C94.5903 226.368 97.4779 216.433 102.232 207.441C106.91 198.599 113.467 190.878 121.046 184.376C128.99 177.547 138.132 172.076 147.59 167.624C157.526 162.946 168.093 159.525 178.913 157.588C199.606 153.891 221.307 155.84 240.891 163.524C259.969 171.007 277.384 184.175 286.564 202.8C291.406 212.635 293.865 223.538 295.05 234.379C296.299 245.71 296.74 257.318 295.643 268.674C295.088 274.447 294.016 280.144 292.402 285.715C291.721 288.054 295.365 289.048 296.046 286.708Z" fill="white"/>
<circle opacity="0.2" cx="159.5" cy="174.5" r="3.5" fill="#FBFCFE"/>
<circle opacity="0.2" cx="291.5" cy="243.5" r="6.5" fill="#FBFCFE"/>
<circle opacity="0.2" cx="186.5" cy="259.5" r="9.5" fill="#FBFCFE"/>
<circle opacity="0.2" cx="193.5" cy="207.5" r="4.5" fill="#FBFCFE"/>
<circle opacity="0.2" cx="251.5" cy="196.5" r="3.5" fill="#FBFCFE"/>
<circle opacity="0.2" cx="249.5" cy="227.5" r="3.5" fill="#FBFCFE"/>
<circle opacity="0.2" cx="95.5" cy="235.5" r="5.5" fill="#FBFCFE"/>
<circle opacity="0.2" cx="106.5" cy="306.5" r="5.5" fill="#FBFCFE"/>
<circle opacity="0.2" cx="165.5" cy="292.5" r="6.5" fill="#FBFCFE"/>
<circle opacity="0.2" cx="178.5" cy="339.5" r="2.5" fill="#FBFCFE"/>
<circle opacity="0.2" cx="251.5" cy="320.5" r="2.5" fill="#FBFCFE"/>
<g filter="url(#filter1_d_70_1062)">
<path d="M86.3571 359.842C85.247 358.176 96.5318 341.518 102.68 336.683C103.388 336.126 104.34 336.326 104.803 337.019L114.394 351.412C114.916 352.196 114.609 353.296 113.7 353.752C103.397 358.922 87.4887 361.54 86.3571 359.842Z" fill="url(#paint2_linear_70_1062)"/>
<path d="M147.438 337.302C146.299 338.04 145.11 338.812 143.872 339.637L123.775 353.029C120.031 355.524 115.124 354.737 112.814 351.272L104.601 338.947C102.292 335.481 103.455 330.649 107.199 328.154L127.368 314.714C128.58 313.906 129.725 313.122 130.824 312.37C136.5 308.484 140.915 305.462 146.65 304.454C153.517 303.246 163.289 303.974 165.487 307.273C167.685 310.571 164.595 319.87 160.837 325.743C157.698 330.648 153.21 333.559 147.438 337.302Z" fill="white"/>
<path d="M94.8304 324.547C94.6133 321.467 110.424 318.377 117.668 321.302L106.046 329.047C103.416 326.701 100.543 326.015 94.8304 324.547Z" fill="#F46E5F"/>
<path d="M122.4 365.919C125.159 367.305 134.098 353.902 134.187 346.091L122.565 353.836C123.717 357.166 123.244 360.081 122.4 365.919Z" fill="#F46E5F"/>
<path d="M114.896 346.001C107.542 350.902 100.576 353.371 99.3392 351.514C98.1021 349.658 103.061 344.18 110.416 339.278C117.771 334.377 124.736 331.909 125.973 333.766C127.211 335.622 122.251 341.1 114.896 346.001Z" fill="#F46E5F"/>
<path d="M155.513 303.968C159.092 304.091 161.524 304.736 163.369 305.609C164.221 306.013 165.039 306.6 165.487 307.273C165.878 307.86 165.979 308.364 166.096 308.894C166.206 309.394 166.264 310.263 166.185 311.338C166.044 313.254 165.495 315.681 164.697 317.75L155.513 303.968Z" fill="#1658B6"/>
<path d="M147.524 329.113C143.445 331.831 138.099 330.974 135.584 327.199C133.068 323.425 134.336 318.161 138.414 315.443C142.493 312.725 147.838 313.582 150.354 317.357C152.869 321.132 151.602 326.395 147.524 329.113Z" fill="#1658B6"/>
<path d="M146.329 327.32C143.32 329.325 139.377 328.693 137.521 325.909C135.665 323.124 136.6 319.241 139.609 317.236C142.618 315.231 146.561 315.863 148.417 318.648C150.272 321.433 149.338 325.315 146.329 327.32Z" fill="#A3C3EB"/>
</g>
<path d="M205.364 291.789C290.529 234.761 352.595 178.115 343.991 165.266C337.736 155.925 310.926 163.982 275.5 181.44M86.4999 306.116C51.0261 335.943 28.6573 361.444 35.5789 371.78C39.6307 377.832 58.6327 373.091 86.4999 360.424" stroke="url(#paint3_linear_70_1062)"/>
<path d="M90.6948 452.184H94.0548C94.0548 458.088 90.2868 462.096 83.6628 463.8L82.4628 461.304C87.9108 459.936 90.6948 457.104 90.6948 453.768V452.184ZM83.7348 452.184H92.7588V454.68H83.7348V452.184ZM97.6068 450.912H100.823V463.296H97.6068V450.912ZM86.1108 464.232H100.823V472.896H86.1108V464.232ZM97.6788 466.752H89.2548V470.376H97.6788V466.752ZM119.661 450.888H122.877V473.184H119.661V450.888ZM110.901 452.448C114.261 452.448 116.733 455.52 116.733 460.368C116.733 465.264 114.261 468.336 110.901 468.336C107.541 468.336 105.069 465.264 105.069 460.368C105.069 455.52 107.541 452.448 110.901 452.448ZM110.901 455.352C109.245 455.352 108.117 457.104 108.117 460.368C108.117 463.68 109.245 465.456 110.901 465.456C112.557 465.456 113.661 463.68 113.661 460.368C113.661 457.104 112.557 455.352 110.901 455.352ZM126.499 462.12H146.635V464.64H126.499V462.12ZM128.971 451.32H144.187V457.272H132.163V459.696H128.995V455.016H141.043V453.744H128.971V451.32ZM128.995 458.52H144.619V460.944H128.995V458.52ZM129.043 465.984H144.307V472.896H129.043V465.984ZM141.163 468.48H132.163V470.376H141.163V468.48Z" fill="white"/>
<path d="M81.3828 474.6H147.619V475.8H81.3828V474.6Z" fill="white"/>
<path d="M181.503 471.168C179.919 471.168 178.463 470.8 177.135 470.064C175.823 469.328 174.775 468.304 173.991 466.992C173.223 465.664 172.839 464.176 172.839 462.528C172.839 460.88 173.223 459.4 173.991 458.088C174.775 456.776 175.823 455.752 177.135 455.016C178.463 454.28 179.919 453.912 181.503 453.912C183.087 453.912 184.535 454.28 185.847 455.016C187.175 455.752 188.215 456.776 188.967 458.088C189.735 459.4 190.119 460.88 190.119 462.528C190.119 464.176 189.735 465.664 188.967 466.992C188.199 468.304 187.159 469.328 185.847 470.064C184.535 470.8 183.087 471.168 181.503 471.168ZM181.503 467.424C182.847 467.424 183.919 466.976 184.719 466.08C185.535 465.184 185.943 464 185.943 462.528C185.943 461.04 185.535 459.856 184.719 458.976C183.919 458.08 182.847 457.632 181.503 457.632C180.143 457.632 179.055 458.072 178.239 458.952C177.439 459.832 177.039 461.024 177.039 462.528C177.039 464.016 177.439 465.208 178.239 466.104C179.055 466.984 180.143 467.424 181.503 467.424ZM200.562 457.464C202.13 457.464 203.378 457.976 204.306 459C205.25 460.008 205.722 461.4 205.722 463.176V471H201.642V463.728C201.642 462.832 201.41 462.136 200.946 461.64C200.482 461.144 199.858 460.896 199.074 460.896C198.29 460.896 197.666 461.144 197.202 461.64C196.738 462.136 196.506 462.832 196.506 463.728V471H192.402V457.608H196.506V459.384C196.922 458.792 197.482 458.328 198.186 457.992C198.89 457.64 199.682 457.464 200.562 457.464ZM218.894 460.872V464.28H208.334V460.872H218.894ZM232.696 462.36C233.672 462.568 234.456 463.056 235.048 463.824C235.64 464.576 235.936 465.44 235.936 466.416C235.936 467.824 235.44 468.944 234.448 469.776C233.472 470.592 232.104 471 230.344 471H222.496V454.152H230.08C231.792 454.152 233.128 454.544 234.088 455.328C235.064 456.112 235.552 457.176 235.552 458.52C235.552 459.512 235.288 460.336 234.76 460.992C234.248 461.648 233.56 462.104 232.696 462.36ZM226.6 460.968H229.288C229.96 460.968 230.472 460.824 230.824 460.536C231.192 460.232 231.376 459.792 231.376 459.216C231.376 458.64 231.192 458.2 230.824 457.896C230.472 457.592 229.96 457.44 229.288 457.44H226.6V460.968ZM229.624 467.688C230.312 467.688 230.84 467.536 231.208 467.232C231.592 466.912 231.784 466.456 231.784 465.864C231.784 465.272 231.584 464.808 231.184 464.472C230.8 464.136 230.264 463.968 229.576 463.968H226.6V467.688H229.624ZM244.412 471.192C243.1 471.192 241.916 470.912 240.86 470.352C239.82 469.792 238.996 468.992 238.388 467.952C237.796 466.912 237.5 465.696 237.5 464.304C237.5 462.928 237.804 461.72 238.412 460.68C239.02 459.624 239.852 458.816 240.908 458.256C241.964 457.696 243.148 457.416 244.46 457.416C245.772 457.416 246.956 457.696 248.012 458.256C249.068 458.816 249.9 459.624 250.508 460.68C251.116 461.72 251.42 462.928 251.42 464.304C251.42 465.68 251.108 466.896 250.484 467.952C249.876 468.992 249.036 469.792 247.964 470.352C246.908 470.912 245.724 471.192 244.412 471.192ZM244.412 467.64C245.196 467.64 245.86 467.352 246.404 466.776C246.964 466.2 247.244 465.376 247.244 464.304C247.244 463.232 246.972 462.408 246.428 461.832C245.9 461.256 245.244 460.968 244.46 460.968C243.66 460.968 242.996 461.256 242.468 461.832C241.94 462.392 241.676 463.216 241.676 464.304C241.676 465.376 241.932 466.2 242.444 466.776C242.972 467.352 243.628 467.64 244.412 467.64ZM252.781 464.28C252.781 462.904 253.037 461.696 253.549 460.656C254.077 459.616 254.789 458.816 255.685 458.256C256.581 457.696 257.581 457.416 258.685 457.416C259.629 457.416 260.453 457.608 261.157 457.992C261.877 458.376 262.429 458.88 262.813 459.504V457.608H266.917V471H262.813V469.104C262.413 469.728 261.853 470.232 261.133 470.616C260.429 471 259.605 471.192 258.661 471.192C257.573 471.192 256.581 470.912 255.685 470.352C254.789 469.776 254.077 468.968 253.549 467.928C253.037 466.872 252.781 465.656 252.781 464.28ZM262.813 464.304C262.813 463.28 262.525 462.472 261.949 461.88C261.389 461.288 260.701 460.992 259.885 460.992C259.069 460.992 258.373 461.288 257.797 461.88C257.237 462.456 256.957 463.256 256.957 464.28C256.957 465.304 257.237 466.12 257.797 466.728C258.373 467.32 259.069 467.616 259.885 467.616C260.701 467.616 261.389 467.32 261.949 466.728C262.525 466.136 262.813 465.328 262.813 464.304ZM273.99 459.84C274.47 459.104 275.07 458.528 275.79 458.112C276.51 457.68 277.31 457.464 278.19 457.464V461.808H277.062C276.038 461.808 275.27 462.032 274.758 462.48C274.246 462.912 273.99 463.68 273.99 464.784V471H269.886V457.608H273.99V459.84ZM279.336 464.28C279.336 462.904 279.592 461.696 280.104 460.656C280.632 459.616 281.344 458.816 282.24 458.256C283.136 457.696 284.136 457.416 285.24 457.416C286.12 457.416 286.92 457.6 287.64 457.968C288.376 458.336 288.952 458.832 289.368 459.456V453.24H293.472V471H289.368V469.08C288.984 469.72 288.432 470.232 287.712 470.616C287.008 471 286.184 471.192 285.24 471.192C284.136 471.192 283.136 470.912 282.24 470.352C281.344 469.776 280.632 468.968 280.104 467.928C279.592 466.872 279.336 465.656 279.336 464.28ZM289.368 464.304C289.368 463.28 289.08 462.472 288.504 461.88C287.944 461.288 287.256 460.992 286.44 460.992C285.624 460.992 284.928 461.288 284.352 461.88C283.792 462.456 283.512 463.256 283.512 464.28C283.512 465.304 283.792 466.12 284.352 466.728C284.928 467.32 285.624 467.616 286.44 467.616C287.256 467.616 287.944 467.32 288.504 466.728C289.08 466.136 289.368 465.328 289.368 464.304Z" fill="white"/>
<path d="M164.423 508.46H166.103V526.56H164.423V508.46ZM165.643 515.8H168.983V517.18H165.643V515.8ZM159.803 510.42H161.423C161.423 515.56 159.063 520.2 153.223 523.14L152.303 521.86C157.303 519.32 159.803 515.46 159.803 510.68V510.42ZM153.143 510.42H160.663V511.78H153.143V510.42ZM183.742 508.48H185.422V518.18H183.742V508.48ZM173.762 519.08H175.402V521.28H183.782V519.08H185.422V526.32H173.762V519.08ZM175.402 522.6V524.98H183.782V522.6H175.402ZM175.722 509.34C178.462 509.34 180.422 511.04 180.422 513.5C180.422 515.98 178.462 517.68 175.722 517.68C172.982 517.68 171.002 515.98 171.002 513.5C171.002 511.04 172.982 509.34 175.722 509.34ZM175.722 510.72C173.922 510.72 172.622 511.86 172.622 513.5C172.622 515.14 173.922 516.28 175.722 516.28C177.522 516.28 178.822 515.14 178.822 513.5C178.822 511.86 177.522 510.72 175.722 510.72ZM197.52 513.58H202.72V514.94H197.52V513.58ZM202.2 508.5H203.86V521.88H202.2V508.5ZM192.24 524.8H204.3V526.16H192.24V524.8ZM192.24 520.58H193.9V525.5H192.24V520.58ZM189.88 509.68H191.52V512.88H196.42V509.68H198.04V518.8H189.88V509.68ZM191.52 514.18V517.44H196.42V514.18H191.52ZM208.198 511.12H222.878V512.48H208.198V511.12ZM207.398 523.08H223.778V524.46H207.398V523.08ZM214.738 520.22H216.378V523.62H214.738V520.22ZM215.538 513.7C219.198 513.7 221.458 514.96 221.458 517.14C221.458 519.32 219.198 520.58 215.538 520.58C211.898 520.58 209.638 519.32 209.638 517.14C209.638 514.96 211.898 513.7 215.538 513.7ZM215.538 515C212.918 515 211.298 515.8 211.298 517.14C211.298 518.48 212.918 519.26 215.538 519.26C218.178 519.26 219.778 518.48 219.778 517.14C219.778 515.8 218.178 515 215.538 515ZM214.738 508.78H216.378V511.96H214.738V508.78Z" fill="white"/>
<g filter="url(#filter2_d_70_1062)">
<path d="M93.2949 585.616C94.0202 585.04 94.3509 584.773 94.2869 584.816C96.3775 583.088 98.0202 581.669 99.2149 580.56C100.431 579.451 101.455 578.288 102.287 577.072C103.119 575.856 103.535 574.672 103.535 573.52C103.535 572.645 103.332 571.963 102.927 571.472C102.522 570.981 101.914 570.736 101.103 570.736C100.292 570.736 99.6522 571.045 99.1829 571.664C98.7349 572.261 98.5109 573.115 98.5109 574.224H93.2309C93.2735 572.411 93.6575 570.896 94.3829 569.68C95.1295 568.464 96.1002 567.568 97.2949 566.992C98.5109 566.416 99.8549 566.128 101.327 566.128C103.866 566.128 105.775 566.779 107.055 568.08C108.356 569.381 109.007 571.077 109.007 573.168C109.007 575.451 108.228 577.573 106.671 579.536C105.114 581.477 103.13 583.376 100.719 585.232H109.359V589.68H93.2949V585.616ZM111.896 585.84V581.424L122.008 566.96H128.12V581.104H130.744V585.84H128.12V590H122.648V585.84H111.896ZM123.032 572.976L117.656 581.104H123.032V572.976ZM147.952 586.032H139.568L138.224 590H132.496L140.624 567.536H146.96L155.088 590H149.296L147.952 586.032ZM146.544 581.808L143.76 573.584L141.008 581.808H146.544ZM171.546 586.032H163.162L161.818 590H156.09L164.218 567.536H170.554L178.682 590H172.89L171.546 586.032ZM170.138 581.808L167.354 573.584L164.602 581.808H170.138ZM195.14 586.032H186.756L185.412 590H179.684L187.812 567.536H194.148L202.276 590H196.484L195.14 586.032ZM193.732 581.808L190.948 573.584L188.196 581.808H193.732ZM218.51 576.496V581.04H204.43V576.496H218.51ZM222.768 578C222.768 574.331 223.472 571.44 224.88 569.328C226.309 567.216 228.603 566.16 231.76 566.16C234.917 566.16 237.2 567.216 238.608 569.328C240.037 571.44 240.752 574.331 240.752 578C240.752 581.712 240.037 584.624 238.608 586.736C237.2 588.848 234.917 589.904 231.76 589.904C228.603 589.904 226.309 588.848 224.88 586.736C223.472 584.624 222.768 581.712 222.768 578ZM235.376 578C235.376 575.845 235.141 574.192 234.672 573.04C234.203 571.867 233.232 571.28 231.76 571.28C230.288 571.28 229.317 571.867 228.848 573.04C228.379 574.192 228.144 575.845 228.144 578C228.144 579.451 228.229 580.656 228.4 581.616C228.571 582.555 228.912 583.323 229.424 583.92C229.957 584.496 230.736 584.784 231.76 584.784C232.784 584.784 233.552 584.496 234.064 583.92C234.597 583.323 234.949 582.555 235.12 581.616C235.291 580.656 235.376 579.451 235.376 578ZM243.643 578C243.643 574.331 244.347 571.44 245.755 569.328C247.184 567.216 249.478 566.16 252.635 566.16C255.792 566.16 258.075 567.216 259.483 569.328C260.912 571.44 261.627 574.331 261.627 578C261.627 581.712 260.912 584.624 259.483 586.736C258.075 588.848 255.792 589.904 252.635 589.904C249.478 589.904 247.184 588.848 245.755 586.736C244.347 584.624 243.643 581.712 243.643 578ZM256.251 578C256.251 575.845 256.016 574.192 255.547 573.04C255.078 571.867 254.107 571.28 252.635 571.28C251.163 571.28 250.192 571.867 249.723 573.04C249.254 574.192 249.019 575.845 249.019 578C249.019 579.451 249.104 580.656 249.275 581.616C249.446 582.555 249.787 583.323 250.299 583.92C250.832 584.496 251.611 584.784 252.635 584.784C253.659 584.784 254.427 584.496 254.939 583.92C255.472 583.323 255.824 582.555 255.995 581.616C256.166 580.656 256.251 579.451 256.251 578ZM264.518 578C264.518 574.331 265.222 571.44 266.63 569.328C268.059 567.216 270.353 566.16 273.51 566.16C276.667 566.16 278.95 567.216 280.358 569.328C281.787 571.44 282.502 574.331 282.502 578C282.502 581.712 281.787 584.624 280.358 586.736C278.95 588.848 276.667 589.904 273.51 589.904C270.353 589.904 268.059 588.848 266.63 586.736C265.222 584.624 264.518 581.712 264.518 578ZM277.126 578C277.126 575.845 276.891 574.192 276.422 573.04C275.953 571.867 274.982 571.28 273.51 571.28C272.038 571.28 271.067 571.867 270.598 573.04C270.129 574.192 269.894 575.845 269.894 578C269.894 579.451 269.979 580.656 270.15 581.616C270.321 582.555 270.662 583.323 271.174 583.92C271.707 584.496 272.486 584.784 273.51 584.784C274.534 584.784 275.302 584.496 275.814 583.92C276.347 583.323 276.699 582.555 276.87 581.616C277.041 580.656 277.126 579.451 277.126 578Z" fill="white"/>
</g>
<path fill-rule="evenodd" clip-rule="evenodd" d="M355.593 114.407C355.886 114.7 355.886 115.175 355.593 115.468L345.468 125.593C345.175 125.886 344.7 125.886 344.407 125.593C344.114 125.3 344.114 124.825 344.407 124.532L354.532 114.407C354.825 114.114 355.3 114.114 355.593 114.407Z" fill="#3A3934"/>
<path fill-rule="evenodd" clip-rule="evenodd" d="M344.407 114.407C344.7 114.114 345.175 114.114 345.468 114.407L355.593 124.532C355.886 124.825 355.886 125.3 355.593 125.593C355.3 125.886 354.825 125.886 354.532 125.593L344.407 115.468C344.114 115.175 344.114 114.7 344.407 114.407Z" fill="#3A3934"/>
<g clip-path="url(#clip1_70_1062)">
<path d="M37.3208 28C40.0088 28 41.6055 25.8979 41.6055 22.3384C41.6055 20.998 41.3491 19.8701 40.8584 18.9985C40.1479 17.6436 38.9248 16.9111 37.3794 16.9111C35.0796 16.9111 33.4536 18.4565 33.4536 20.6245C33.4536 22.6606 34.9185 24.1401 36.9326 24.1401C38.1704 24.1401 39.1738 23.5615 39.6719 22.5581H39.6938C39.6938 22.5581 39.7231 22.5581 39.7305 22.5581C39.7451 22.5581 39.7964 22.5581 39.7964 22.5581C39.7964 24.9751 38.8809 26.418 37.3354 26.418C36.4272 26.418 35.7241 25.9199 35.4824 25.1216H33.6001C33.915 26.8574 35.3872 28 37.3208 28ZM37.3867 22.6387C36.1709 22.6387 35.3066 21.7744 35.3066 20.5659C35.3066 19.3867 36.2148 18.4858 37.394 18.4858C38.5732 18.4858 39.4814 19.4014 39.4814 20.5952C39.4814 21.7744 38.5952 22.6387 37.3867 22.6387Z" fill="black"/>
<path d="M44.6966 27.8975C45.3924 27.8975 45.8685 27.3994 45.8685 26.7402C45.8685 26.0737 45.3924 25.583 44.6966 25.583C44.0081 25.583 43.5247 26.0737 43.5247 26.7402C43.5247 27.3994 44.0081 27.8975 44.6966 27.8975ZM44.6966 22.4043C45.3924 22.4043 45.8685 21.9136 45.8685 21.2544C45.8685 20.5879 45.3924 20.0972 44.6966 20.0972C44.0081 20.0972 43.5247 20.5879 43.5247 21.2544C43.5247 21.9136 44.0081 22.4043 44.6966 22.4043Z" fill="black"/>
<path d="M52.7242 27.7437H54.5333V25.7734H55.9615V24.1768H54.5333V17.1748H51.8673C49.9996 19.9873 48.5128 22.3384 47.5606 24.0889V25.7734H52.7242V27.7437ZM49.3111 24.1108C50.5416 21.9429 51.6402 20.207 52.651 18.7129H52.7535V24.2207H49.3111V24.1108Z" fill="black"/>
<path d="M59.9901 27.7437H61.8798V17.1748H59.9975L57.2362 19.1084V20.9248L59.8656 19.0791H59.9901V27.7437Z" fill="black"/>
<path d="M67.8799 -2H286.88C284.774 -1.39731 283.298 0.495246 283.225 2.68446L283.196 3.5618C283.196 17.0587 272.255 28 258.758 28H96.0016C82.5048 28 71.5634 17.0587 71.5634 3.5618L71.5344 2.68447C71.4622 0.49525 69.9857 -1.39731 67.8799 -2Z" fill="black"/>
<path opacity="0.35" d="M335.713 19.3333C335.713 18.1367 336.683 17.1667 337.88 17.1667H354.546C355.743 17.1667 356.713 18.1367 356.713 19.3333V25.3333C356.713 26.5299 355.743 27.5 354.546 27.5H337.88C336.683 27.5 335.713 26.5299 335.713 25.3333V19.3333Z" stroke="black"/>
<path opacity="0.4" d="M358.213 20.3333V24.3333C359.018 23.9945 359.541 23.2064 359.541 22.3333C359.541 21.4602 359.018 20.6721 358.213 20.3333Z" fill="black"/>
<path d="M337.213 20C337.213 19.2636 337.81 18.6667 338.546 18.6667H353.88C354.616 18.6667 355.213 19.2636 355.213 20V24.6667C355.213 25.403 354.616 26 353.88 26H338.546C337.81 26 337.213 25.403 337.213 24.6667V20Z" fill="black"/>
<path fill-rule="evenodd" clip-rule="evenodd" d="M322.544 18.9413C324.759 18.9414 326.891 19.7928 328.497 21.3196C328.618 21.4375 328.811 21.436 328.93 21.3163L330.086 20.1496C330.146 20.0889 330.18 20.0067 330.179 19.9211C330.179 19.8355 330.144 19.7536 330.083 19.6936C325.868 15.6541 319.218 15.6541 315.003 19.6936C314.942 19.7536 314.908 19.8354 314.907 19.921C314.906 20.0066 314.94 20.0889 315 20.1496L316.157 21.3163C316.276 21.4362 316.469 21.4377 316.59 21.3196C318.196 19.7927 320.327 18.9413 322.544 18.9413ZM322.544 22.737C323.761 22.7369 324.935 23.1894 325.838 24.0066C325.96 24.1226 326.152 24.1201 326.271 24.001L327.426 22.8343C327.486 22.7731 327.52 22.6901 327.519 22.6038C327.518 22.5176 327.483 22.4352 327.421 22.3753C324.673 19.8189 320.417 19.8189 317.669 22.3753C317.607 22.4352 317.571 22.5176 317.57 22.6039C317.569 22.6902 317.603 22.7732 317.664 22.8343L318.819 24.001C318.938 24.1201 319.13 24.1226 319.252 24.0066C320.154 23.19 321.327 22.7375 322.544 22.737ZM324.857 25.2908C324.858 25.3773 324.824 25.4607 324.763 25.5213L322.765 27.537C322.707 27.5962 322.627 27.6295 322.544 27.6295C322.46 27.6295 322.38 27.5962 322.322 27.537L320.324 25.5213C320.263 25.4606 320.229 25.3772 320.23 25.2907C320.232 25.2042 320.27 25.1223 320.334 25.0643C321.609 23.9854 323.478 23.9854 324.753 25.0643C324.817 25.1223 324.855 25.2043 324.857 25.2908Z" fill="black"/>
<path fill-rule="evenodd" clip-rule="evenodd" d="M308.88 16.9999H307.88C307.328 16.9999 306.88 17.4476 306.88 17.9999V26.6666C306.88 27.2189 307.328 27.6666 307.88 27.6666H308.88C309.432 27.6666 309.88 27.2189 309.88 26.6666V17.9999C309.88 17.4476 309.432 16.9999 308.88 16.9999ZM303.213 19.3332H304.213C304.766 19.3332 305.213 19.781 305.213 20.3332V26.6666C305.213 27.2189 304.766 27.6666 304.213 27.6666H303.213C302.661 27.6666 302.213 27.2189 302.213 26.6666V20.3332C302.213 19.781 302.661 19.3332 303.213 19.3332ZM299.547 21.6666H298.547C297.994 21.6666 297.547 22.1143 297.547 22.6666V26.6666C297.547 27.2189 297.994 27.6666 298.547 27.6666H299.547C300.099 27.6666 300.547 27.2189 300.547 26.6666V22.6666C300.547 22.1143 300.099 21.6666 299.547 21.6666ZM294.88 23.6666H293.88C293.328 23.6666 292.88 24.1143 292.88 24.6666V26.6666C292.88 27.2189 293.328 27.6666 293.88 27.6666H294.88C295.432 27.6666 295.88 27.2189 295.88 26.6666V24.6666C295.88 24.1143 295.432 23.6666 294.88 23.6666Z" fill="black"/>
</g>
</g>
<defs>
<filter id="filter0_f_70_1062" x="-413" y="-344" width="1181" height="1330" filterUnits="userSpaceOnUse" color-interpolation-filters="sRGB">
<feFlood flood-opacity="0" result="BackgroundImageFix"/>
<feBlend mode="normal" in="SourceGraphic" in2="BackgroundImageFix" result="shape"/>
<feGaussianBlur stdDeviation="125" result="effect1_foregroundBlur_70_1062"/>
</filter>
<filter id="filter1_d_70_1062" x="68.3196" y="286.096" width="115.337" height="103.121" filterUnits="userSpaceOnUse" color-interpolation-filters="sRGB">
<feFlood flood-opacity="0" result="BackgroundImageFix"/>
<feColorMatrix in="SourceAlpha" type="matrix" values="0 0 0 0 0 0 0 0 0 0 0 0 0 0 0 0 0 0 127 0" result="hardAlpha"/>
<feOffset dy="4"/>
<feGaussianBlur stdDeviation="2"/>
<feComposite in2="hardAlpha" operator="out"/>
<feColorMatrix type="matrix" values="0 0 0 0 0 0 0 0 0 0 0 0 0 0 0 0 0 0 0.25 0"/>
<feBlend mode="normal" in2="BackgroundImageFix" result="effect1_dropShadow_70_1062"/>
<feBlend mode="normal" in="SourceGraphic" in2="effect1_dropShadow_70_1062" result="shape"/>
</filter>
<filter id="filter2_d_70_1062" x="89.231" y="566.128" width="197.271" height="31.872" filterUnits="userSpaceOnUse" color-interpolation-filters="sRGB">
<feFlood flood-opacity="0" result="BackgroundImageFix"/>
<feColorMatrix in="SourceAlpha" type="matrix" values="0 0 0 0 0 0 0 0 0 0 0 0 0 0 0 0 0 0 127 0" result="hardAlpha"/>
<feOffset dy="4"/>
<feGaussianBlur stdDeviation="2"/>
<feComposite in2="hardAlpha" operator="out"/>
<feColorMatrix type="matrix" values="0 0 0 0 0 0 0 0 0 0 0 0 0 0 0 0 0 0 0.25 0"/>
<feBlend mode="normal" in2="BackgroundImageFix" result="effect1_dropShadow_70_1062"/>
<feBlend mode="normal" in="SourceGraphic" in2="effect1_dropShadow_70_1062" result="shape"/>
</filter>
<radialGradient id="paint0_radial_70_1062" cx="0" cy="0" r="1" gradientUnits="userSpaceOnUse" gradientTransform="translate(187.5 333.5) rotate(89.9391) scale(470.268 637.703)">
<stop/>
<stop offset="1" stop-color="#3A3934" stop-opacity="0"/>
</radialGradient>
<linearGradient id="paint1_linear_70_1062" x1="194" y1="154" x2="194" y2="357" gradientUnits="userSpaceOnUse">
<stop stop-color="#1658B6"/>
<stop offset="1" stop-color="#F46E5F"/>
</linearGradient>
<linearGradient id="paint2_linear_70_1062" x1="165.515" y1="307.316" x2="86.4603" y2="359.997" gradientUnits="userSpaceOnUse">
<stop stop-color="#F2D56E"/>
<stop offset="1" stop-color="#F3B14E"/>
</linearGradient>
<linearGradient id="paint3_linear_70_1062" x1="175.191" y1="246.728" x2="239.5" y2="314.5" gradientUnits="userSpaceOnUse">
<stop offset="0.005" stop-color="#C1D04B"/>
<stop offset="1" stop-color="#C1D04B" stop-opacity="0"/>
</linearGradient>
<clipPath id="clip0_70_1062">
<rect width="375" height="667" fill="white"/>
</clipPath>
<clipPath id="clip1_70_1062">
<rect width="375" height="44" fill="white"/>
</clipPath>
</defs>
</svg>
